<?xml version="1.0" encoding="UTF-8" standalone="no"?>
<svg xmlns="http://www.w3.org/2000/svg" width="206" height="21" viewBox="0 0 206 21" version="1.1">
<g transform="translate(0,-1031.3622)">
<path style="fill:#ffcc33;fill-opacity:1;stroke:none;stroke-opacity:1" d="m 155.94522,1034.8057 c -0.49686,-0.2143 -0.64198,-0.6035 -0.51282,-1.375 0.0558,-0.3335 0.18068,-0.7648 0.27748,-0.9584 0.50404,-1.0088 3.03565,-1.0701 3.37374,-0.082 0.14107,0.4124 -0.0602,1.4428 -0.37599,1.9249 -0.13844,0.2114 -0.41718,0.4352 -0.63707,0.5114 -0.53462,0.1852 -1.67295,0.1738 -2.12536,-0.022 z m -36.68417,-2.3733 c -0.34803,2.5738 -1.01592,5.9385 -1.32891,7.6502 -0.71222,3.8986 -1.35805,7.8081 -1.35805,7.8081 1.14853,0 2.51321,0.016 3.85653,-0.01 2.76374,-0.048 3.32543,-0.089 4.13694,-0.2964 3.90641,-0.9997 6.22715,-4.1862 6.41018,-8.8012 0.0873,-2.2019 -0.31225,-3.5187 -1.41497,-4.6636 -0.66704,-0.6925 -1.56442,-1.1835 -2.73798,-1.4978 -0.62072,-0.1663 -1.25269,-0.1989 -3.88788,-0.2006 -1.26191,0 -6.7245,0.01 -3.67588,0.01 z m 3.50386,2.3126 c 0.22227,0 0.51611,0.012 0.90768,0.024 1.42593,0.046 1.62863,0.079 2.21237,0.3617 0.75696,0.3673 1.37379,1.0285 1.63225,1.75 0.23729,0.6625 0.27126,2.4192 0.0678,3.485 -0.36526,1.9103 -1.64584,3.7718 -3.08217,4.4804 -0.88853,0.4385 -1.61533,0.5701 -3.14474,0.5701 -1.09851,0 -1.23327,-0.021 -1.23654,-0.1986 -0.006,-0.3231 1.75363,-9.9345 1.87264,-10.229 0.0816,-0.2019 0.10412,-0.2525 0.77105,-0.2442 z m 74.15219,13.1643 c -0.14283,-0.057 -0.28613,-0.1696 -0.31846,-0.2501 -0.10131,-0.2526 1.88617,-11.0043 2.06851,-11.1898 0.26426,-0.269 1.90584,-0.3277 2.28549,-0.082 0.26703,0.1729 0.29108,0.2419 0.23249,0.667 -0.036,0.2608 -0.0897,0.5658 -0.11949,0.6778 -0.0297,0.112 0.17428,-0.045 0.45345,-0.3494 0.27916,-0.3041 0.77435,-0.7018 1.1004,-0.8838 0.49748,-0.2777 0.72054,-0.3307 1.3873,-0.3294 0.44882,9e-4 0.91303,0.067 1.06696,0.1529 0.25565,0.142 0.26875,0.1953 0.21206,0.8621 -0.07,0.8239 -0.30354,1.7283 -0.5271,2.0415 -0.14481,0.2028 -0.19952,0.2077 -0.78035,0.069 -0.84681,-0.2023 -1.27162,-0.048 -1.98745,0.7234 -0.92797,0.9997 -1.17741,1.6828 -1.78443,4.8873 l -0.53749,2.8373 -0.39488,0.1355 c -0.46482,0.1595 -1.98421,0.179 -2.35702,0.03 z m -24.72767,0.01 c -0.135,-0.054 -0.27877,-0.1508 -0.31949,-0.2148 -0.11861,-0.1867 1.86975,-11.0415 2.05757,-11.2326 0.1061,-0.108 0.48476,-0.1854 1.07462,-0.2195 0.73209,-0.042 0.96966,-0.015 1.21088,0.1416 0.31163,0.2019 0.32105,0.3239 0.10102,1.3078 -0.0568,0.254 -0.009,0.2329 0.48637,-0.2143 0.30214,-0.2728 0.92918,-0.6804 1.39341,-0.9059 0.78978,-0.3835 0.9134,-0.4096 1.92232,-0.4068 0.87875,0 1.16302,0.048 1.53646,0.245 0.96123,0.5074 1.41289,1.251 1.54357,2.541 0.0669,0.6611 -0.0238,1.3322 -0.62806,4.6508 -0.45155,2.4793 -0.77313,3.9625 -0.89158,4.1119 -0.15348,0.1938 -0.34864,0.2423 -1.138,0.2829 -1.21414,0.062 -1.7353,-0.062 -1.79486,-0.4298 -0.0242,-0.1495 0.2496,-1.8895 0.60848,-3.8668 0.54375,-2.9955 0.63318,-3.6675 0.53643,-4.0305 -0.32268,-1.2108 -1.93868,-0.7907 -3.03882,0.79 -0.6873,0.9874 -0.80078,1.3526 -1.39363,4.4842 l -0.52907,2.7948 -0.39484,0.1354 c -0.45705,0.1568 -1.98233,0.18 -2.34277,0.035 z m -18.74085,0 c -0.1429,-0.061 -0.28536,-0.1752 -0.31658,-0.2547 -0.0312,-0.08 0.38429,-2.5958 0.92338,-5.5918 0.72892,-4.0508 1.02788,-5.4824 1.16631,-5.5849 0.4468,-0.331 2.51059,-0.3342 2.84594,-0.01 0.14936,0.1468 0.0486,0.8308 -0.83875,5.6924 -0.88765,4.8634 -1.03671,5.5412 -1.24369,5.6556 -0.30164,0.1668 -2.19579,0.2324 -2.5367,0.088 z m 38.14136,-11.7885 c -3.99203,-0.075 -6.762,3.1087 -6.72557,7.8142 0.0118,1.5241 0.1597,2.0461 0.81868,2.8907 0.35742,0.4582 1.27028,0.9423 2.15842,1.1447 0.87758,0.2 3.20819,0.1336 4.27027,-0.1215 1.50362,-0.3613 1.8101,-0.6888 1.88156,-2.0099 0.0333,-0.6156 0.008,-0.7776 -0.13272,-0.8311 -0.0959,-0.036 -0.64993,0.066 -1.23121,0.2294 -1.25248,0.3506 -2.78084,0.4822 -3.46042,0.2979 -0.27787,-0.075 -0.59761,-0.2705 -0.76741,-0.4681 -0.31762,-0.3698 -0.49817,-1.142 -0.39096,-1.6722 l 0.0675,-0.3337 1.61086,-0.071 c 2.59492,-0.1151 3.97853,-0.5169 4.9792,-1.4463 0.93506,-0.8685 1.23175,-1.9396 0.86704,-3.1304 -0.40197,-1.3124 -1.70166,-2.144 -3.55499,-2.2747 -0.13127,-0.01 -0.26145,-0.016 -0.39021,-0.017 z m -0.42306,2.381 c 0.47728,-0.01 0.88708,0.1254 1.10845,0.3777 0.6574,0.749 0.0522,1.5623 -1.38803,1.8651 -0.32959,0.069 -1.00111,0.126 -1.49239,0.126 l -0.8933,0 0.17979,-0.4824 c 0.26675,-0.7154 1.18206,-1.6231 1.80408,-1.7892 0.23347,-0.062 0.46444,-0.094 0.68139,-0.098 z m -45.68605,9.5665 c -1.00156,-0.178 -1.74821,-0.446 -2.07233,-0.7439 -0.33994,-0.3125 -0.35495,-0.3602 -0.29028,-0.9232 0.082,-0.7144 0.42081,-1.5582 0.62586,-1.5589 0.0815,-2e-4 0.51521,0.1839 0.96372,0.4092 1.81626,0.9124 3.68371,0.5135 3.66109,-0.7821 -0.009,-0.4957 -0.2538,-0.708 -1.61332,-1.3967 -1.85868,-0.9416 -2.37672,-1.6802 -2.30072,-3.2804 0.0881,-1.8536 1.45198,-3.2144 3.59181,-3.5837 1.52963,-0.264 3.52103,0.1138 4.04676,0.7677 0.18404,0.2289 0.22072,0.3902 0.17249,0.7588 -0.0882,0.6745 -0.4262,1.433 -0.63848,1.433 -0.099,0 -0.49999,-0.1337 -0.89102,-0.2971 -1.48411,-0.6201 -2.86126,-0.4183 -3.13565,0.4596 -0.18825,0.6022 0.0164,0.8256 1.34218,1.4677 1.38642,0.6712 1.80784,0.9785 2.22988,1.6262 0.40843,0.6268 0.53716,1.4067 0.3745,2.269 -0.39523,2.0949 -2.03516,3.2895 -4.64615,3.3842 -0.62465,0.022 -1.26381,0.018 -1.42035,-0.01 z m -6.89318,-11.9475 c -3.99203,-0.075 -6.76201,3.1087 -6.72558,7.8142 0.0118,1.5241 0.15971,2.0461 0.81868,2.8907 0.35743,0.4582 1.27028,0.9423 2.15842,1.1447 0.87758,0.2 3.20818,0.1336 4.27027,-0.1215 1.50362,-0.3613 1.8101,-0.6888 1.88157,-2.0099 0.0334,-0.6156 0.008,-0.7776 -0.13274,-0.8311 -0.0958,-0.036 -0.64992,0.066 -1.2312,0.2294 -1.25249,0.3506 -2.78084,0.4822 -3.46043,0.2979 -0.27785,-0.075 -0.59761,-0.2705 -0.76741,-0.4681 -0.31761,-0.3698 -0.49816,-1.142 -0.39094,-1.6722 l 0.0675,-0.3337 1.61086,-0.071 c 2.59492,-0.1151 3.97852,-0.5169 4.97919,-1.4463 0.93506,-0.8685 1.23175,-1.9396 0.86704,-3.1304 -0.40197,-1.3124 -1.70165,-2.144 -3.555,-2.2747 -0.13127,-0.01 -0.26144,-0.016 -0.39019,-0.017 z m -0.42306,2.381 c 0.47726,-0.01 0.88708,0.1254 1.10844,0.3777 0.6574,0.749 0.0522,1.5623 -1.38803,1.8651 -0.32958,0.069 -1.00111,0.126 -1.4924,0.126 l -0.8933,0 0.1798,-0.4824 c 0.26676,-0.7154 1.18206,-1.6231 1.80408,-1.7892 0.23347,-0.062 0.46444,-0.094 0.68139,-0.098 z m 26.9253,-2.3857 c -0.32348,0 -0.65807,0.028 -1.00062,0.096 -2.0738,0.4057 -3.69714,2.2505 -4.44896,5.0559 -0.20594,0.7686 -0.2388,1.1783 -0.21378,2.6673 0.0269,1.5972 0.0546,1.8113 0.30071,2.3266 0.32577,0.6819 0.84763,1.2391 1.46851,1.5674 0.37384,0.1977 0.65676,0.2429 1.53647,0.2455 0.97662,0 1.14846,-0.03 1.82371,-0.3534 0.41003,-0.1958 0.9435,-0.5378 1.18553,-0.7599 l 0.44007,-0.4041 -0.2641,1.0842 c -0.31579,1.2958 -0.5983,1.649 -1.53928,1.924 -0.83915,0.2452 -2.22981,0.167 -3.15518,-0.1774 -1.03263,-0.3843 -1.3064,-0.367 -1.57278,0.1 -0.16362,0.2866 -0.2199,0.5996 -0.21423,1.1917 l 0.008,0.8029 0.43401,0.2103 c 0.23873,0.1156 0.80341,0.2807 1.25485,0.3667 1.00608,0.1917 3.38666,0.1286 4.26285,-0.1128 0.94681,-0.2609 1.77837,-0.7388 2.32907,-1.3388 0.93107,-1.0143 1.03588,-1.3871 2.24083,-7.964 1.00523,-5.4869 1.08389,-6.0167 0.91592,-6.1817 -0.23723,-0.2332 -1.60476,-0.3185 -2.15876,-0.1346 -0.34982,0.1162 -0.42221,0.2041 -0.52371,0.6373 l -0.11773,0.5026 -0.46186,-0.4109 c -0.68757,-0.6115 -1.55855,-0.9316 -2.52916,-0.9403 z m 0.20517,2.7323 c 0.27779,0 0.56607,0.06 0.8593,0.1925 0.46504,0.2096 1.09009,0.8246 1.08983,1.0723 3e-5,0.46 -0.46575,2.2802 -0.73637,2.8809 -0.38251,0.849 -1.28488,1.8628 -1.94519,2.1852 -0.98616,0.4815 -1.65614,0.1868 -1.90312,-0.8369 -0.12112,-0.5021 -0.11863,-0.7976 0.0144,-1.6763 0.19543,-1.2899 0.48939,-2.128 0.99737,-2.8428 0.45238,-0.6366 1.01268,-0.9676 1.6237,-0.9749 z" />
<path style="fill:#000000" d="" />
<path style="fill:#000000" d="" />
<g style="display:inline" transform="matrix(0.13247139,0,0,0.13247139,130.10264,1155.9138)">
<g style="fill:#ffcc33" transform="matrix(0.1,0,0,-0.1,-20,235.2)" />
</g>
<g transform="matrix(1.25,0,0,1.25,0.30342757,1031.032)" style="font-style:normal;font-weight:normal;font-size:4px;line-height:125%;font-family:sans-serif;letter-spacing:0px;word-spacing:0px;fill:#ffcc33;fill-opacity:1;stroke:none;stroke-width:1px;stroke-linecap:butt;stroke-linejoin:miter;stroke-opacity:1">
<path style="font-style:italic;font-variant:normal;font-weight:bold;font-stretch:normal;font-size:4px;font-family:calibri;fill:#ffcc33;fill-opacity:1" d="m 84.816795,5.5734358 q 0,0.125 -0.03516,0.2480469 -0.0332,0.1230468 -0.107422,0.2324218 -0.07422,0.109375 -0.193359,0.1972657 -0.117188,0.087891 -0.28711,0.140625 0.09375,0.037109 0.15625,0.1484375 0.06445,0.109375 0.105469,0.3007812 l 0.103516,0.5136719 q 0.0078,0.042969 0.01172,0.078125 0.0059,0.033203 0.0059,0.056641 0,0.019531 -0.01367,0.033203 -0.01172,0.013672 -0.04492,0.023437 -0.0332,0.00781 -0.0918,0.011719 -0.05664,0.00391 -0.144531,0.00391 -0.08203,0 -0.132812,-0.00586 -0.04883,-0.00391 -0.07617,-0.013672 -0.02734,-0.011719 -0.03711,-0.029297 -0.0078,-0.017578 -0.01172,-0.041016 L 83.92617,6.9113264 Q 83.91054,6.8136704 83.8832,6.7394514 83.85781,6.6652324 83.81679,6.6164045 83.77577,6.5656235 83.715228,6.5421855 83.656638,6.5167945 83.574603,6.5167945 l -0.160156,0 -0.19336,0.9648437 q -0.0039,0.019531 -0.01953,0.035156 -0.01563,0.015625 -0.04883,0.025391 -0.03125,0.00977 -0.08203,0.013672 -0.05078,0.00586 -0.125,0.00586 -0.07422,0 -0.123047,-0.00586 -0.04687,-0.00391 -0.07422,-0.013672 -0.02734,-0.00977 -0.03711,-0.023437 -0.0098,-0.015625 -0.0039,-0.037109 l 0.460938,-2.296875 q 0.01563,-0.085937 0.06836,-0.1230469 0.05469,-0.039063 0.125,-0.039063 l 0.677735,0 q 0.177734,0 0.320312,0.033203 0.144531,0.033203 0.246094,0.1015625 0.101562,0.068359 0.15625,0.171875 0.05469,0.1035156 0.05469,0.2441406 z m -0.550781,0.095703 q 0,-0.054687 -0.01953,-0.1015625 -0.01758,-0.046875 -0.05859,-0.080078 -0.04102,-0.035156 -0.107422,-0.052734 -0.06445,-0.019531 -0.15625,-0.019531 l -0.291015,0 -0.142579,0.7167968 0.244141,0 q 0.146484,0 0.248047,-0.041016 0.101562,-0.042969 0.164062,-0.109375 0.0625,-0.066406 0.08984,-0.1464844 0.0293,-0.082031 0.0293,-0.1660156 z M 83.75,4.015625 c -1.287307,0 -2.335938,1.046677 -2.335938,2.3339844 0,1.2873073 1.048631,2.3359375 2.335938,2.3359375 1.287307,0 2.335938,-1.0486302 2.335938,-2.3359375 0,-1.2873074 -1.048631,-2.3339844 -2.335938,-2.3339844 z m 0,0.3984375 c 1.071131,0 1.935547,0.8644156 1.935547,1.9355469 0,1.0711313 -0.864416,1.9355468 -1.935547,1.9355468 -1.071131,0 -1.935547,-0.8644155 -1.935547,-1.9355468 0,-1.0711313 0.864416,-1.9355469 1.935547,-1.9355469 z M 49.516348,7.5063162 c -0.455702,2.4374736 -0.561679,3.2111068 -0.519288,3.7833828 0.116575,1.62145 0.996185,2.373887 2.596439,2.225519 0.83722,-0.08478 1.653243,-0.476897 2.310301,-1.123357 l 0.50869,-0.487495 -0.07418,0.720645 -0.07418,0.710046 1.165748,0 1.165748,0 0.05299,-0.349724 c 0.03179,-0.180161 0.137771,-0.794829 0.23315,-1.345909 0.08478,-0.551081 0.423909,-2.3420946 0.74184,-3.9741421 0.307334,-1.6320475 0.58241,-3.2267296 0.58241,-3.2267296 0,0 -0.338663,-0.00557 -1.313652,-0.00557 l -1.303519,0 -0.455701,2.3738873 C 54.677433,9.20195 54.433686,9.9437898 53.882605,10.675032 53.53288,11.120136 52.791041,11.46986 52.367132,11.374481 51.572304,11.204917 51.561706,10.59025 52.23996,7.0506146 l 0.50869,-2.6176346 -1.335312,0 -1.335311,0 z M 78.575272,4.4647732 C 77.992397,4.6873251 77.303546,5.2490038 76.911431,5.8318779 L 76.529913,6.3935566 76.5935,5.5987282 c 0.03179,-0.4345061 0.105977,-1.0609538 0.105977,-1.0609538 0,0 -0.243748,0.00118 -1.123358,0.00118 -0.858414,0 -1.158992,-0.00118 -1.158992,-0.00118 l -1.4852,8.9016566 c 0,0 0.09014,0.0016 1.308881,0.0016 l 1.324714,0 0.105977,-0.561678 c 0.06359,-0.296736 0.211954,-1.102162 0.339126,-1.769818 0.392116,-2.1513354 0.74184,-2.9991523 1.48368,-3.6350149 0.402713,-0.3497245 1.08084,-0.5731783 1.948208,-0.6276537 0,0 0.03356,-0.2201632 0.23492,-1.1951526 0.127173,-0.6464604 0.311968,-1.2476982 0.322566,-1.3006867 0,0 -1.04321,-0.024027 -1.424727,0.1137431 z M 68.422664,4.3693938 c -1.695633,0.4345061 -3.062738,1.75922 -3.677405,3.5396354 -0.275541,0.8160238 -0.328529,2.5116578 -0.105977,3.2746928 0.498092,1.663841 2.013565,2.479864 4.30267,2.331496 0.964392,-0.06359 2.398374,-0.354944 2.680335,-0.645416 l -0.111513,-0.945284 -0.09955,-0.889164 c -0.03179,-0.0212 -0.349725,0.06359 -0.720644,0.190759 -0.858415,0.296736 -2.320899,0.339127 -2.797796,0.07418 -0.476897,-0.254345 -0.794828,-0.646461 -0.858415,-1.059771 l -0.06359,-0.3709202 1.356507,-0.063586 c 2.924968,-0.1271725 4.387452,-1.0703688 4.387452,-2.8401865 0,-1.1551505 -0.455701,-1.8969903 -1.451886,-2.384485 -0.69945,-0.3497208 -1.971175,-0.4451002 -2.840188,-0.2119505 z m 1.663841,2.0771513 c 0.254345,0.3179314 0.243747,0.6570581 -0.04239,0.9325986 -0.37092,0.3391267 -0.763035,0.4451039 -1.854599,0.5192878 l -1.006783,0.063586 0.180161,-0.4133107 C 67.585446,7.0082235 68.12593,6.4677402 68.645217,6.2769814 69.196298,6.0756249 69.853356,6.1604066 70.086506,6.4465448 Z M 43.051744,4.3270029 c -0.847817,0.1801611 -1.960576,0.7842306 -2.585841,1.4094956 -1.335312,1.3459093 -1.960577,3.6350149 -1.451887,5.3942345 0.264943,0.932599 1.25053,1.918186 2.204324,2.214922 1.176346,0.349724 2.702417,0.201356 3.931751,-0.402713 0.784231,-0.381518 1.780416,-1.398898 2.204324,-2.257312 C 48.615543,8.099788 47.926691,5.3337855 45.828345,4.5389571 45.128896,4.2740144 43.793584,4.178635 43.051744,4.3270029 Z m 1.536668,2.1089445 c 0.688852,0.4133107 0.847817,1.6108521 0.413311,3.0521408 -0.190759,0.6358628 -0.720644,1.4624838 -1.144553,1.7698178 -0.455701,0.328529 -1.335311,0.307334 -1.716829,-0.04239 -0.593472,-0.540483 -0.731242,-1.4094955 -0.423908,-2.5752437 0.286138,-1.1021619 0.816023,-1.9181857 1.483679,-2.2785079 0.328529,-0.1907588 1.027978,-0.1483679 1.3883,0.074184 z M 12.530337,4.3270029 C 11.68252,4.507164 10.56976,5.1112335 9.9444951,5.7364985 8.6091835,7.0824078 7.9839186,9.3715134 8.4926087,11.130733 c 0.2649428,0.932599 1.2505299,1.918186 2.2043243,2.214922 1.176346,0.349724 2.702416,0.201356 3.93175,-0.402713 0.784231,-0.381518 1.780416,-1.398898 2.204324,-2.257312 1.261128,-2.585842 0.572277,-5.3518445 -1.52607,-6.1466729 -0.699449,-0.2649427 -2.034761,-0.3603221 -2.7766,-0.2119542 z m 1.536668,2.1089445 c 0.688851,0.4133107 0.847817,1.6108521 0.41331,3.0521408 -0.190758,0.6358628 -0.720644,1.4624838 -1.144552,1.7698178 -0.455702,0.328529 -1.335312,0.307334 -1.71683,-0.04239 -0.593471,-0.540483 -0.731242,-1.4094955 -0.423908,-2.5752437 0.286138,-1.1021619 0.816024,-1.9181857 1.48368,-2.2785079 0.328529,-0.1907588 1.027978,-0.1483679 1.3883,0.074184 z M 62.064038,2.3346333 c -0.699449,0.1695633 -1.282323,0.328529 -1.314116,0.3497244 -0.0212,0.031793 -0.116575,0.4451039 -0.211955,0.9220009 l -0.180161,0.87961 -0.582874,0.031793 -0.582874,0.031793 -0.127172,0.7630351 c -0.07418,0.4239085 -0.200893,1.2427618 -0.200893,1.2427618 0,0 -0.02166,-0.00283 0.518824,-0.00283 l 0.582874,0 -0.413311,2.0877491 c -0.551081,2.8719794 -0.551081,3.7515894 0.0106,4.3450614 0.476897,0.50869 0.837219,0.614667 2.045358,0.614667 0.635863,0 1.186944,-0.05299 1.25053,-0.116575 0.09538,-0.09538 0.169564,-0.455701 0.381518,-1.716829 l 0.05299,-0.339127 -0.540483,0 c -0.64646,0 -0.953794,-0.254345 -0.953794,-0.773633 0,-0.180161 0.169563,-1.1763452 0.37092,-2.1937255 0.201356,-1.0173802 0.37092,-1.8651971 0.37092,-1.8863925 0,-0.010598 1.92997,-0.011062 1.92997,-0.011062 l 0.231963,-1.2606635 0.13777,-0.7630352 -0.943196,0 c -0.50869,0 -0.942732,-0.00663 -0.942732,-0.00663 l 0.232685,-1.2862919 c 0,0 0.201357,-1.1763459 0.180161,-1.1869436 -0.0106,-0.010598 -0.604069,0.1059771 -1.303518,0.2755405 z M 34.082106,0.9542814 c -0.637187,0 -1.294245,0.0291437 -1.744648,0.0874311 -0.317931,0.042391 -0.752437,0.1059771 -0.964391,0.148368 l -0.392116,0.063586 -0.434506,2.310301 c -0.243747,1.2611276 -0.773633,3.9953371 -1.165748,6.0618907 l -0.720644,3.7621878 1.271725,0.0079 1.324714,0.0027 c 0,0 0.243747,-1.11276 0.487495,-2.416279 l 0.445104,-2.3632893 0.625264,-0.031793 c 0.805426,-0.031793 1.303519,0.2013566 1.568462,0.7418398 0.127172,0.2437474 0.243747,0.9325985 0.339126,1.8545995 0.08478,0.805426 0.180162,1.642645 0.222552,1.854599 l 0.06359,0.402713 1.377702,0 c 1.25053,0 1.331005,-0.0016 1.331005,-0.0016 0,0 -0.19705,-1.068766 -0.345418,-2.541847 C 37.180612,9.0959737 37.000451,8.4707088 36.523554,7.9832141 L 36.17383,7.6334896 36.852083,7.2943628 c 0.784231,-0.402713 1.441289,-1.0703688 1.769818,-1.7804154 0.328529,-0.7100466 0.328529,-2.1195422 0,-2.7342094 C 38.145004,1.8789317 37.127624,1.2748622 35.707531,1.0417125 35.336611,0.9834251 34.719294,0.9542814 34.082106,0.9542814 Z m 0.0093,2.0996715 c 0.434506,0.00397 0.916702,0.054313 1.139254,0.1496927 1.250529,0.5298855 1.208139,2.1831284 -0.07418,2.9779567 -0.455702,0.2755405 -0.625265,0.3179314 -1.547266,0.3497245 L 32.581236,6.5737178 32.888569,4.952268 C 33.058133,4.0514625 33.217098,3.2566342 33.238294,3.1824502 33.270084,3.0923692 33.656903,3.0499788 34.09141,3.053953 Z M 4.8575938,4.835693 C 4.4548808,6.9764307 4.0627655,8.9899958 3.9673861,9.3079271 3.7236388,10.229928 3.3739143,10.738618 2.8122356,11.003561 c -0.476897,0.233149 -2.42434348,0.03749 -2.42434348,0.03749 0,0 -0.006839,0.170154 -0.1440177,1.095533 C 0.10610418,12.719461 0,13.287431 0,13.287431 c 0,0 1.4027401,0.280776 2.3459363,0.227787 2.1831285,-0.116574 3.3276813,-1.01738 4.0059348,-3.14752 0.2013565,-0.6040693 1.8231126,-9.41826506 1.8228063,-9.43334136 0,0 -0.2649428,0.001379 -1.2929208,0.001379 l -1.3035184,0 z M 19.620205,5.1960152 c -1.144553,5.6591778 -1.208139,6.2632468 -0.710046,7.1004668 0.476897,0.816023 1.494277,1.250529 2.91437,1.250529 2.564646,-0.0106 4.673591,-1.579058 5.500212,-4.0801182 0.222552,-0.6782535 0.275541,-1.0597711 0.286138,-1.9605766 0.0106,-0.7206443 -0.04239,-1.2399322 -0.13777,-1.4836795 -0.264943,-0.6570581 -0.667656,-1.1763459 -1.165748,-1.4624841 -0.434506,-0.2543451 -0.593472,-0.2861382 -1.3883,-0.2755405 -1.01738,0.010598 -1.610852,0.2119542 -2.26791,0.7842306 -0.275541,0.2437473 -0.381518,0.2967359 -0.381518,0.1695634 0,-0.084782 0.211954,-1.1975414 0.476897,-2.4692667 0.264943,-1.2717253 0.553328,-2.41135865 0.553328,-2.4643472 0,0 -0.669903,-0.004919 -1.390547,-0.004919 l -1.303519,0 z m 4.599407,1.2717253 c 0.625265,0.2755405 0.847817,1.2505299 0.551081,2.3950827 -0.413311,1.6108518 -1.398898,2.6812208 -2.469267,2.6706228 -0.922001,-0.0106 -1.15515,-0.64646 -0.826621,-2.2043235 0.317931,-1.5472658 0.794828,-2.384485 1.568461,-2.7660026 0.50869,-0.254345 0.794828,-0.2755404 1.176346,-0.095379 z" />
</g>
</g>
</svg>
